<svg xmlns="http://www.w3.org/2000/svg" xmlns:xlink="http://www.w3.org/1999/xlink" version="1.1" id="Layer_1" x="0px" y="0px" viewBox="5.0 -10.0 100.0 135.0" enable-background="new 0 0 100 100" xml:space="preserve" height="100px" width="100px">
<path d="M98.5,48.7c-1.1-1.5-2.8-2.5-4.7-2.5c-1.1,0-2.3,0.3-3.2,1c-0.3,0.2-0.6,0.5-0.9,0.8l-3.6-2.7c0,0,0,0,0,0  c0-0.3,0.1-0.6,0.1-0.9c0-3-1.7-5.5-4.2-6.8l0-0.1c0.3,0.1,0.6,0.1,0.9,0.1c1,0,2-0.3,2.9-0.9c1.2-0.8,2-2,2.4-3.4  c0.3-1.4,0.1-2.8-0.7-4.1c-1-1.6-2.7-2.5-4.5-2.5c-0.8,0-1.6,0.2-2.4,0.6c-1-1-2.4-1.7-4-1.8c-3.6-0.3-6.7,2.4-7,5.9  c-0.3,3.1,1.7,5.9,4.6,6.8c-2,1.4-3.2,3.6-3.2,6.2c0,0.8,0.1,1.5,0.3,2.2l-5.8,3.8c-1.4-2-3.6-3.3-6.2-3.3c-2.5,0-4.8,1.3-6.2,3.2  l-5.7-4.1c0.1-0.6,0.2-1.2,0.2-1.8c0-2.9-1.6-5.4-4.1-6.7l0.3-0.6c0.4,0.1,0.8,0.1,1.2,0.1c0.9,0,1.8-0.2,2.7-0.7  c2.6-1.5,3.5-4.8,2-7.3c-1-1.7-2.7-2.7-4.7-2.7c-0.9,0-1.8,0.2-2.7,0.7c-0.8,0.5-1.4,1.1-1.9,1.9c-1.2-2.2-3.6-3.6-6.3-3.3  c-1.7,0.2-3.3,1-4.4,2.3c-1.1,1.3-1.6,3-1.4,4.7c0.3,3.3,3.1,5.8,6.4,5.8c0.1,0,0.3,0,0.4,0c-1.7,1.4-2.8,3.5-2.8,5.9  c0,0.8,0.1,1.5,0.3,2.2l-5.8,3.8c-1.4-1.7-3.5-2.8-5.9-2.8c-2.2,0-4.1,0.9-5.5,2.3l-3.4-2.7c0.2-0.4,0.3-0.8,0.4-1.2  c0.3-1.5,0-3-0.8-4.3c-1-1.6-2.8-2.6-4.8-2.6c-1.1,0-2.1,0.3-3.1,0.9c-1.3,0.8-2.1,2.1-2.5,3.6c-0.3,1.5,0,3,0.8,4.3  c1,1.6,2.8,2.6,4.8,2.6c1.1,0,2.1-0.3,3.1-0.9c0.3-0.2,0.6-0.5,0.9-0.8l3.4,2.7c-0.6,1.1-0.9,2.3-0.9,3.6c0,2.4,1.1,4.5,2.8,5.9  l1.5-2.4c0.3-0.5,0.9-0.6,1.4-0.3c0.1,0.1,0.2,0.2,0.3,0.3c-0.4-0.2-1-0.1-1.2,0.4l-1.4,2.3L16.4,62c-0.2-0.1-0.4-0.2-0.6-0.2  c-0.8-0.3-1.6-0.4-2.4-0.3c-1.7,0.1-3.3,0.9-4.4,2.2s-1.7,3-1.6,4.7c0.2,3.4,3,6,6.4,6c0.1,0,0.3,0,0.4,0c1.7-0.1,3.3-0.9,4.4-2.2  c1.1-1.3,1.7-2.9,1.6-4.7c-0.1-1.8-0.9-3.3-2.2-4.4l0.5-0.8c0.8,0.3,1.6,0.4,2.5,0.4c0.1,0,0.2,0,0.3,0c0,3,2.4,5.4,5.4,5.4  c3,0,5.4-2.4,5.4-5.4c0-2.4-1.6-4.5-3.9-5.1c0.3-0.8,0.4-1.6,0.4-2.4c0-1.1-0.2-2.1-0.7-3.1l5.6-3.7c1.3,2.1,3.7,3.6,6.4,3.6  c2.8,0,5.3-1.5,6.6-3.8l5.5,3.9c-0.3,0.8-0.5,1.7-0.5,2.6c0,2.9,1.6,5.4,4,6.7c-0.2,0-0.5,0-0.7,0c-0.5,0-1.1,0.1-1.6,0.2  c-3.4,0.9-5.5,4.4-4.6,7.9c0.7,2.8,3.3,4.8,6.2,4.8c0.5,0,1.1-0.1,1.6-0.2c2.5-0.6,4.3-2.7,4.7-5.1c0.4,0.2,0.7,0.3,1.1,0.3  c0.3,0.1,0.7,0.1,1,0.1c2.6,0,4.8-1.8,5.3-4.4c0.3-1.4,0-2.8-0.8-4c-0.6-0.9-1.4-1.6-2.4-2c0.9-1.2,1.4-2.7,1.4-4.3  c0-0.9-0.2-1.7-0.4-2.5l5.7-3.8c1.3,2.1,3.7,3.6,6.4,3.6c3.1,0,5.8-1.9,7-4.6l3.2,2.4c-0.7,1.7-0.6,3.8,0.5,5.4  c1.1,1.5,2.8,2.5,4.7,2.5c1.1,0,2.3-0.3,3.2-1c1.2-0.9,2.1-2.1,2.4-3.6C99.7,51.5,99.4,50,98.5,48.7z M10.6,45.6  c-0.2,1-0.8,1.8-1.6,2.3c-0.6,0.4-1.3,0.6-2,0.6c-1.3,0-2.4-0.6-3.1-1.7C3.4,46,3.2,45,3.4,44.1c0.2-1,0.8-1.8,1.6-2.3  c0.6-0.4,1.3-0.6,2-0.6c1.3,0,2.4,0.6,3.1,1.7C10.6,43.7,10.8,44.7,10.6,45.6z M18.3,67.6c0.1,1.2-0.3,2.3-1.1,3.2  c-0.8,0.9-1.9,1.4-3.1,1.5c-2.5,0.1-4.6-1.7-4.7-4.2c-0.1-1.2,0.3-2.3,1.1-3.2c0.8-0.9,1.9-1.4,3.1-1.5c0.1,0,0.2,0,0.3,0  C16.2,63.4,18.1,65.3,18.3,67.6z M18.1,54c-0.9,0-1.6-0.7-1.6-1.6c0-0.9,0.7-1.6,1.6-1.6c0.9,0,1.6,0.7,1.6,1.6  C19.7,53.3,19,54,18.1,54z M30.3,62.7c0,2-1.6,3.6-3.6,3.6s-3.6-1.6-3.6-3.6c0-0.1,0-0.2,0-0.3c0.4-0.1,0.9-0.3,1.3-0.5l0.2,0.3  c0.2,0.3,0.5,0.4,0.8,0.4c0.2,0,0.4-0.1,0.6-0.2c0.4-0.3,0.5-1,0.2-1.4l-0.2-0.3c0.5-0.5,1-1,1.3-1.6C29.1,59.5,30.3,61,30.3,62.7z   M30.4,32.5c-0.1-1.2,0.2-2.3,1-3.3c0.8-0.9,1.8-1.5,3-1.6c0.1,0,0.3,0,0.4,0c2.3,0,4.2,1.7,4.4,4c0.1,1.2-0.2,2.3-1,3.3  s-1.8,1.5-3,1.6C32.8,36.7,30.6,34.9,30.4,32.5z M39.4,40.7c-0.1,0.1-0.3,0.1-0.4,0.1c0.4-0.3,0.5-0.8,0.3-1.3l-1.2-2  c0.2-0.1,0.3-0.2,0.5-0.3l1.2,2.1C40,39.9,39.9,40.5,39.4,40.7z M41.7,36.9c-0.5-0.1-1.1-0.2-1.6-0.2c-0.3,0-0.6,0-0.9,0.1  c0.2-0.2,0.4-0.4,0.6-0.7c0.3-0.4,0.6-0.8,0.8-1.3c0.4,0.5,0.8,1,1.4,1.4L41.7,36.9z M42.8,34.5c-0.3-0.3-0.6-0.6-0.8-1  c-1-1.7-0.4-3.9,1.3-4.9c0.5-0.3,1.2-0.5,1.8-0.5c1.3,0,2.5,0.7,3.1,1.8c1,1.7,0.4,3.9-1.3,4.9c-0.5,0.3-1.2,0.5-1.8,0.5  c-0.1,0-0.3,0-0.4,0l0.6-1.3c0.2-0.5,0-1.1-0.5-1.3c-0.5-0.2-1.1,0-1.3,0.5L42.8,34.5z M58.4,58c-0.5-0.1-1,0.1-1.2,0.6l-1,2.8  c-0.2,0-0.4-0.1-0.6-0.1l1.1-3c0.2-0.5,0.8-0.8,1.3-0.6C58.2,57.7,58.3,57.8,58.4,58z M58.3,62.2C58.3,62.2,58.3,62.2,58.3,62.2  c-0.1,0.1-0.2,0-0.2,0C58.2,62.2,58.3,62.1,58.3,62.2z M54.7,51.9c0-0.9,0.7-1.6,1.6-1.6c0.9,0,1.6,0.7,1.6,1.6  c0,0.9-0.7,1.6-1.6,1.6C55.4,53.5,54.7,52.8,54.7,51.9z M56.1,72c-0.4,0.1-0.7,0.1-1.1,0.1c-2,0-3.8-1.4-4.3-3.3  c-0.6-2.4,0.8-4.8,3.2-5.4c0.4-0.1,0.7-0.1,1.1-0.1c2,0,3.8,1.4,4.3,3.3C59.9,69,58.4,71.4,56.1,72z M66.3,61.9  c0.5,0.8,0.7,1.7,0.6,2.7c-0.4,1.9-2.3,3.2-4.2,2.8c-0.5-0.1-1-0.3-1.4-0.6c0-0.2-0.1-0.5-0.1-0.8c-0.3-1-0.7-1.8-1.3-2.5  c0-0.1,0-0.2,0-0.3c0.1-0.4,0.2-0.8,0.5-1.2c0.2,0,0.5-0.1,0.7-0.1l0.5,0.9c0.2,0.3,0.5,0.5,0.9,0.5c0.2,0,0.3,0,0.5-0.1  c0.5-0.3,0.7-0.9,0.4-1.4l-0.4-0.7c0.4-0.2,0.8-0.5,1.2-0.8C65,60.6,65.8,61.2,66.3,61.9z M78.9,41.3c-0.1,0-0.2,0.1-0.3,0.1  c0,0-0.1,0-0.1,0c0.4-0.2,0.6-0.7,0.5-1.2L78.1,38c0.2-0.1,0.4-0.1,0.5-0.2l0.8,2.3C79.6,40.6,79.4,41.1,78.9,41.3z M75.6,36.4  c-1.2-0.1-2.3-0.7-3-1.6s-1.1-2.1-1-3.2c0.2-2.3,2.1-4.1,4.4-4.1c0.1,0,0.3,0,0.4,0c1.2,0.1,2.3,0.7,3,1.6s1.1,2.1,1,3.2  C80.2,34.7,78,36.6,75.6,36.4z M82.9,28.6c1.2,0,2.4,0.6,3,1.6c0.5,0.8,0.7,1.8,0.5,2.7c-0.2,0.9-0.8,1.7-1.6,2.2  c-0.6,0.4-1.2,0.6-1.9,0.6c-0.1,0-0.1,0-0.2,0l0.4-1c0.2-0.5,0-1.1-0.6-1.3c-0.1,0-0.2-0.1-0.3-0.1c0.1-0.3,0.1-0.5,0.1-0.8  c0.1-1.3-0.2-2.6-0.8-3.7C82,28.7,82.4,28.6,82.9,28.6z M97.4,52.6c-0.2,1-0.7,1.8-1.5,2.4c-0.6,0.4-1.3,0.6-2.1,0.6  c-1.2,0-2.3-0.6-3-1.6c-1.1-1.7-0.7-4,0.9-5.1c0.6-0.4,1.3-0.6,2.1-0.6c1.2,0,2.3,0.6,3,1.6C97.4,50.6,97.6,51.6,97.4,52.6z"/>
<text x="0.0" y="117.5" font-size="5.0" font-weight="bold" font-family="Helvetica Neue, Helvetica, Arial-Unicode, Arial, Sans-serif" fill="#000000">Created by Michael Wohlwend</text><text x="0.0" y="122.5" font-size="5.0" font-weight="bold" font-family="Helvetica Neue, Helvetica, Arial-Unicode, Arial, Sans-serif" fill="#000000">from the Noun Project</text></svg>