<svg xmlns="http://www.w3.org/2000/svg" xmlns:xlink="http://www.w3.org/1999/xlink" version="1.1" id="Layer_1" x="0px" y="0px" viewBox="5.0 -10.0 100.0 135.0" enable-background="new 0 0 100 100" xml:space="preserve" height="100px" width="100px">
<path d="M44.2,94.9c0,0-2.6-7.8-2.9-10.4c-0.3-2.6-4.3-2.2-5.3-2.2c-0.9,0-8.8,1.7-13.2,1.7c-4.3,0-7.8-2-7.3-5.1  c0.5-3.1,1.8-7.8,0-8.8c-1.8-1.1-2.4-2.9,0-4c0,0-1.5-0.5-2.6-1.4c-1.1-0.9-0.2-1.9,0.8-3.3c0.9-1.4,0.5-2.9-4.3-5.3  c-4.8-2.3,0.8-6.7,1.7-7.4c0.9-0.8,6-5.9,6-11.2c0-5.3-2.2-16.6,12.1-25.3c14.3-8.7,31-10.5,48.2,0c17.2,10.5,20.5,32.6,6.2,47.6  c-10.4,12.1-4.8,18,0.5,32.4L44.2,94.9z M68.7,66.5c0,0-0.7-6.3,5.8-9.9C81,53,81,47.5,81,47.5s6.3-6.5,1.4-12.1  c0,0,0.6-12.1-6-12.1c0,0-2.9-8.4-12.4-6.5c0,0-8.2-6.1-12.5-0.3c0,0-8.9-4.1-12.1,2.5c0,0-9.6-1.2-10.6,7.7c0,0-5.5,1.4-6,9.4  c-0.5,8,7.7,9.9,11.6,9.6c3.9-0.2,5.5-1,5.5-1s3.4,3.1,9.9,1c0,0,8.4,2.4,8.4,7.2c0,4.8,0,13.5,0,13.5l4,0c0,0-0.1-7.7-0.1-11.7  s2.8-5.3,4.1-6.5c0.3-0.3,2.7-1.8,3.6-5.5c0.9-3.7,1-7.2-2.8-8.7c-3.8-1.5-7.5-2-8.6-1.1c-1.1,0.9-2.8,3.8-0.3,8.2l-1.8,1.4  c0,0-1.6-2.3-1.8-5c0,0-3.5-0.7-5.5,1.6L47.1,38c0,0,2.1-3.4,7.7-2.9c0,0,0.4-2.1,2.1-3.8c0,0-1.2-3.7-4.3-3.1  c-3.1,0.6-1.8,1.1-5.7,1.4c0,0-0.9,4.8-6.5,6.9c0,0-1.9,2.1-6.2,1.4c-3.2-0.3-3.1,2.3-3.1,2.3l-2.3-0.6c0,0,0.6-2.6,2.4-3.6  s4.9,0.4,7-0.7c0,0-1.2-3.3-4.3-3.5l-0.1-2.3c0,0,4.1-0.2,6.5,4.5c0,0,3.3-0.9,4.5-5.2c0,0-1.2-2.1-3.6-3.1l0.7-2.2  c0,0,3,0.9,4.6,3.7c0,0,1.7,0,3.5-0.7c1.8-0.7,3.2-0.5,3.2-0.5s1.3-1.8,1.4-4l2.5,0.4c0,0-0.1,2.1-1.4,4c0,0,2.6,1.1,3.3,3.8  c0,0,2-0.1,3.6,0.2c0,0-0.5-3.3,2.4-4.9l1.3,2c0,0-1.8,1.5-1.1,3.4c0,0,5.4,0.9,7,5c0,0,2.3,0.1,4.5-2.7l2,1.4c0,0-2,2.8-6,3.8  c0,0,0.2,3.4-1.2,6.8c0,0,3.8,1.6,4.2,4.8l-2.3,0.7c-1.1-2.9-3.1-3.1-3.1-3.1s-2.5,2.4-4.3,3.8c-1.8,1.4-1.6,4.5-1.6,4.5l-0.1,10.4  H68.7z"/>
<text x="0.0" y="117.5" font-size="5.0" font-weight="bold" font-family="Helvetica Neue, Helvetica, Arial-Unicode, Arial, Sans-serif" fill="#000000">Created by Blake Ferguson</text><text x="0.0" y="122.5" font-size="5.0" font-weight="bold" font-family="Helvetica Neue, Helvetica, Arial-Unicode, Arial, Sans-serif" fill="#000000">from the Noun Project</text></svg>