<svg xmlns="http://www.w3.org/2000/svg" xmlns:xlink="http://www.w3.org/1999/xlink" version="1.1" id="Layer_1" x="0px" y="0px" width="100px" height="100px" viewBox="5.0 -10.0 100.0 135.0" enable-background="new 0 0 100 100" xml:space="preserve">
<path d="M40.987,25.852v5.295h-9.853V41h-5.298v-9.853h-9.85v-5.295h9.85V16h5.298v9.852H40.987z"/>
<path d="M62.5,25.512h18v6.68h-18V25.512z"/>
<path d="M24.497,72.167l-8.404-8.457l4.018-4.018l8.402,8.457l8.459-8.457l4.016,4.018l-8.509,8.457l8.509,8.457l-4.016,4.018  l-8.459-8.51l-8.508,8.51l-4.018-4.018L24.497,72.167z"/>
<path d="M84,68.877v5.295H59v-5.295H84z M68.579,58.258c0.842-0.808,1.823-1.213,2.945-1.213c0.562,0,1.09,0.107,1.585,0.322  c0.495,0.216,0.933,0.512,1.311,0.891c0.379,0.381,0.685,0.826,0.917,1.337c0.23,0.512,0.347,1.063,0.347,1.658  c0,0.528-0.117,1.04-0.347,1.535c-0.231,0.496-0.53,0.94-0.892,1.335c-0.363,0.397-0.792,0.711-1.287,0.94  c-0.494,0.232-1.023,0.347-1.583,0.347c-0.594,0-1.148-0.107-1.658-0.32c-0.514-0.215-0.959-0.512-1.337-0.892  c-0.379-0.379-0.685-0.824-0.917-1.336c-0.23-0.511-0.347-1.047-0.347-1.609C67.315,60.064,67.736,59.067,68.579,58.258z   M67.662,80.164c0.231-0.496,0.538-0.933,0.917-1.311c0.378-0.379,0.824-0.677,1.337-0.893c0.51-0.213,1.047-0.32,1.607-0.32  c0.562,0,1.09,0.107,1.585,0.32c0.495,0.216,0.933,0.514,1.311,0.893c0.379,0.378,0.685,0.815,0.917,1.311  c0.23,0.496,0.347,1.04,0.347,1.634c0,0.496-0.117,0.991-0.347,1.484c-0.231,0.496-0.53,0.941-0.892,1.338  c-0.363,0.396-0.792,0.717-1.287,0.965c-0.494,0.248-1.023,0.371-1.583,0.371c-0.594,0-1.148-0.115-1.658-0.347  c-0.514-0.229-0.959-0.536-1.337-0.915c-0.379-0.38-0.685-0.826-0.917-1.337c-0.23-0.512-0.347-1.031-0.347-1.559  C67.315,81.203,67.432,80.659,67.662,80.164z"/>
<text x="0.0" y="117.5" font-size="5.0" font-weight="bold" font-family="Helvetica Neue, Helvetica, Arial-Unicode, Arial, Sans-serif" fill="#000000">Created by SuperAtic LABS</text><text x="0.0" y="122.5" font-size="5.0" font-weight="bold" font-family="Helvetica Neue, Helvetica, Arial-Unicode, Arial, Sans-serif" fill="#000000">from the Noun Project</text></svg>