<svg xmlns="http://www.w3.org/2000/svg" xmlns:xlink="http://www.w3.org/1999/xlink" version="1.1" id="Layer_1" x="0px" y="0px" width="100px" height="100px" viewBox="5.0 -10.0 100.0 135.0" enable-background="new 0 0 100 100" xml:space="preserve">
<path d="M95,8.539L53,22.986v50.284c-1.832-0.864-4.27-1.001-6.694-0.193c-4.192,1.397-6.74,5.078-5.692,8.222  c1.048,3.144,5.295,4.559,9.487,3.162c3.742-1.247,6.166-4.314,5.899-7.195V32l36-12.397v32.681  c-1.835-0.876-4.286-1.019-6.722-0.207c-4.192,1.397-6.74,5.078-5.692,8.222c1.048,3.144,5.295,4.559,9.487,3.162  c3.525-1.175,5.878-3.965,5.918-6.692H95V8.539z"/>
<g>
	<path d="M19,9v43c-1.869-0.892-4.481-0.971-6.963-0.143c-4.269,1.423-6.865,5.172-5.798,8.374c1.067,3.202,5.393,4.644,9.663,3.221   c3.59-1.197,6.047-4.038,6.087-6.816H22V23c0,0,12.926,3.741,17,18C39,24.704,25,22,19,9z"/>
	<g>
		<path d="M37.423,79H2v2h35.476C37.371,80.333,37.355,79.664,37.423,79z"/>
		<path d="M98,81v-2H58.9c-0.115,0.68-0.31,1.351-0.591,2H98z"/>
		<path d="M5.078,64H2v2h5.87C6.789,65.499,5.842,64.824,5.078,64z"/>
		<path d="M98,66v-2h-3.769c-0.978,0.804-2.112,1.487-3.377,2H98z"/>
		<path d="M78.401,64H59v2h22.155C80.082,65.501,79.157,64.82,78.401,64z"/>
		<path d="M21.09,64c-0.996,0.803-2.149,1.486-3.433,2H50v-2H21.09z"/>
		<rect x="25" y="49" width="25" height="2"/>
		<path d="M11.125,49H2v2h5.25c1.106-0.825,2.395-1.508,3.839-1.99C11.101,49.006,11.113,49.004,11.125,49z"/>
		<path d="M59,51h21.822c1.029-0.725,2.201-1.333,3.507-1.769c0.264-0.088,0.53-0.16,0.796-0.231H59V51z"/>
		<path d="M32.25,34H25v2h8.595C33.168,35.288,32.718,34.622,32.25,34z"/>
		<rect x="2" y="34" width="14" height="2"/>
		<polygon points="59,36 89,36 89,34 59.406,34 59,34.14   "/>
		<path d="M41.551,36H50v-2h-8.898C41.277,34.642,41.425,35.311,41.551,36z"/>
		<path d="M32.734,21h18.028c0.335-0.378,0.762-0.678,1.263-0.851L55.366,19H30.686c0.004,0.004,0.008,0.007,0.011,0.011    C31.377,19.668,32.059,20.328,32.734,21z"/>
		<rect x="2" y="19" width="14" height="2"/>
	</g>
</g>
<text x="0.0" y="117.5" font-size="5.0" font-weight="bold" font-family="Helvetica Neue, Helvetica, Arial-Unicode, Arial, Sans-serif" fill="#000000">Created by Ilsur Aptukov</text><text x="0.0" y="122.5" font-size="5.0" font-weight="bold" font-family="Helvetica Neue, Helvetica, Arial-Unicode, Arial, Sans-serif" fill="#000000">from the Noun Project</text></svg>