<svg xmlns="http://www.w3.org/2000/svg" xmlns:xlink="http://www.w3.org/1999/xlink" version="1.1" id="Your_Icon" x="0px" y="0px" width="100px" height="100px" viewBox="5.0 -10.0 100.0 135.0" enable-background="new 0 0 100 100" xml:space="preserve">
<g>
</g>
<path fill="#000000" stroke="#231F20" stroke-width="0.6625" stroke-linecap="round" stroke-miterlimit="10" d="M52.073,77.66"/>
<g>
</g>
<path fill="#000000" d="M63.67,1.02h-32.8c-0.99,0-1.8,0.8-1.8,1.79c0,0.32,0.09,0.62,0.24,0.88H29.3l0.41,0.71  c1.45,2.55,3.45,6.05,3.45,9.78v71.44c0,8.74,7.25,13.33,14.42,13.34h0.03c6.871,0,13.831-4.2,13.86-12.24V14.18  c0-3.86,2.03-7.43,3.5-10.03l0.261-0.46c0.14-0.26,0.229-0.56,0.229-0.88C65.46,1.82,64.66,1.02,63.67,1.02z M57.88,14.18v8.79  c-0.08-0.02-0.16-0.05-0.24-0.05h-10.8c-0.63,0-1.14,0.51-1.14,1.14s0.51,1.14,1.14,1.14h10.8c0.08,0,0.16-0.03,0.24-0.05v13.68  c-0.08-0.02-0.16-0.05-0.24-0.05h-10.8c-0.63,0-1.14,0.51-1.14,1.14s0.51,1.14,1.14,1.14h10.8c0.08,0,0.16-0.03,0.24-0.05V54.1  c-0.08-0.02-0.16-0.05-0.24-0.05h-10.8c-0.63,0-1.14,0.51-1.14,1.141c0,0.63,0.51,1.14,1.14,1.14h10.8c0.08,0,0.16-0.03,0.24-0.05  V69.47c-0.09-0.02-0.18-0.06-0.28-0.06H46.81c-0.63,0-1.14,0.51-1.14,1.14s0.51,1.141,1.14,1.141H57.6c0.101,0,0.19-0.03,0.28-0.051  V86.7c-0.02,5.96-5.33,8.67-10.27,8.67c-0.01,0-0.01,0-0.02,0c-5.22-0.01-10.84-3.07-10.84-9.75V14.18c0-3.67-1.44-6.99-2.82-9.57  h26.69C59.27,7.21,57.88,10.52,57.88,14.18z"/>
<g>
	<path fill="#000000" d="M46.84,37.7h9.96v-3.616H37.83V85.62c0,5.944,5.06,8.661,9.76,8.67h0.02c4.415,0,9.173-2.376,9.19-7.59   v-13.93h-9.99c-1.224,0-2.22-0.996-2.22-2.221c0-1.224,0.996-2.22,2.22-2.22h9.99V57.41h-9.96c-1.224,0-2.22-0.996-2.22-2.22   c0-1.225,0.996-2.221,2.22-2.221h9.96V42.14h-9.96c-1.224,0-2.22-0.996-2.22-2.22S45.616,37.7,46.84,37.7z"/>
</g>
<text x="0.0" y="117.5" font-size="5.0" font-weight="bold" font-family="Helvetica Neue, Helvetica, Arial-Unicode, Arial, Sans-serif" fill="#000000">Created by Blake Thompson</text><text x="0.0" y="122.5" font-size="5.0" font-weight="bold" font-family="Helvetica Neue, Helvetica, Arial-Unicode, Arial, Sans-serif" fill="#000000">from the Noun Project</text></svg>